<svg id="Layer_5" enable-background="new 0 0 64 64" height="512" viewBox="0 0 64 64" width="512" xmlns="http://www.w3.org/2000/svg" xmlns:xlink="http://www.w3.org/1999/xlink"><linearGradient id="SVGID_1_" gradientUnits="userSpaceOnUse" x1="32" x2="32" y1="63" y2="1"><stop offset="0" stop-color="#9f2fff"/><stop offset="1" stop-color="#0bb1d3"/></linearGradient><path d="m33 32h3v3h-2v-1h-3c-.551 0-1 .449-1 1s.449 1 1 1h2c1.654 0 3 1.346 3 3s-1.346 3-3 3v2h-2v-2h-3v-3h2v1h3c.551 0 1-.449 1-1s-.449-1-1-1h-2c-1.654 0-3-1.346-3-3s1.346-3 3-3v-2h2zm7.29-16.708-3.131 9.394 3.507 3.068c2.754 2.41 4.334 5.892 4.334 9.552 0 7-5.694 12.694-12.694 12.694h-.612c-7 0-12.694-5.694-12.694-12.694 0-3.661 1.58-7.143 4.334-9.553l3.486-3.05-3.151-8.402 5.637-1.409 2.585 2.585 2.707-3.609zm-13.96 2.406 2.363 6.302h6.586l2.431-7.292-2.308-.577-3.293 4.391-3.415-3.415zm13.018 11.56-3.723-3.258h-7.249l-3.724 3.258c-2.321 2.031-3.652 4.964-3.652 8.048 0 5.897 4.797 10.694 10.694 10.694h.612c5.897 0 10.694-4.797 10.694-10.694 0-3.084-1.331-6.017-3.652-8.048zm-28.4 1.742h-8.021l.076-1.07c1.013-14.338 12.589-25.914 26.927-26.928l1.07-.075v8.021l-.91.082c-10.13.914-18.146 8.929-19.06 19.06zm8.811-23.11c-.826.423-1.623.892-2.398 1.394l2.208 3.305c.558-.358 1.131-.693 1.721-1.002zm3.343 2.843c.623-.26 1.257-.497 1.906-.702l-.785-3.949c-.905.273-1.784.604-2.647.968zm-7.38-.302c-.732.555-1.433 1.147-2.105 1.772l2.808 2.808c.485-.444.987-.868 1.509-1.27zm-3.519 3.186c-.625.672-1.216 1.373-1.771 2.105l3.31 2.212c.402-.521.825-1.024 1.27-1.508zm-2.919 3.744c-.503.775-.972 1.572-1.395 2.398l3.697 1.531c.309-.59.645-1.163 1.002-1.722zm-2.234 4.215c-.364.863-.694 1.742-.968 2.647l3.949.785c.206-.649.442-1.284.702-1.906zm21.95-16.481c-.963.107-1.906.282-2.837.489l.78 3.922c.675-.151 1.36-.277 2.057-.368zm-19.862 23.905c.091-.697.217-1.382.368-2.057l-3.923-.78c-.206.931-.381 1.874-.488 2.837zm24.772 23.97c10.13-.914 18.146-8.929 19.06-19.06l.082-.91h8.021l-.076 1.07c-1.013 14.338-12.589 25.914-26.927 26.928l-1.07.075v-8.021zm1.09 5.935c12.498-1.387 22.518-11.407 23.905-23.905h-4.043c-1.346 10.358-9.504 18.516-19.862 19.862zm28-54.905c0 1.654-1.346 3-3 3-1.302 0-2.402-.839-2.816-2h-3.77l-3.866 3.866c6.474 4.931 10.845 12.504 11.45 21.064l.075 1.07h-8.021l-.082-.91c-.914-10.13-8.929-18.146-19.06-19.06l-.91-.082v-8.021l1.07.076c5.068.358 9.787 2.041 13.82 4.693l4.696-4.696h4.598c.414-1.161 1.514-2 2.816-2 1.654 0 3 1.346 3 3zm-28 1.095v4.043c10.358 1.346 18.516 9.504 19.862 19.862h4.043c-1.387-12.498-11.407-22.518-23.905-23.905zm26-1.095c0-.551-.449-1-1-1s-1 .449-1 1 .449 1 1 1 1-.449 1-1zm-60 56c0-1.654 1.346-3 3-3 1.302 0 2.402.839 2.816 2h3.77l3.866-3.866c-6.474-4.931-10.845-12.504-11.45-21.064l-.075-1.07h8.021l.082.91c.914 10.13 8.929 18.146 19.06 19.06l.91.082v8.021l-1.07-.076c-5.068-.358-9.787-2.041-13.82-4.693l-4.696 4.696h-4.598c-.414 1.161-1.514 2-2.816 2-1.654 0-3-1.346-3-3zm28-1.095v-4.043c-10.358-1.346-18.516-9.504-19.862-19.862h-4.043c1.387 12.498 11.407 22.518 23.905 23.905zm-26 1.095c0 .551.449 1 1 1s1-.449 1-1-.449-1-1-1-1 .449-1 1z" fill="url(#SVGID_1_)"/></svg>